<svg width="764" height="869" viewBox="0 0 764 869" fill="none" xmlns="http://www.w3.org/2000/svg">
<g opacity="0.2">
<path d="M7.39242 273.358L34.9724 235.979L211.708 235.979C211.985 237.195 213.336 238.139 215.048 238.143C216.954 238.143 218.499 236.989 218.499 235.565C218.499 234.141 216.954 232.986 215.048 232.986C213.342 232.986 211.985 233.934 211.708 235.151L34.3077 235.143L6.7277 272.522L-134.966 272.522C-135.243 271.305 -136.601 270.357 -138.307 270.357C-140.212 270.357 -141.758 271.512 -141.758 272.936C-141.758 274.36 -140.212 275.514 -138.307 275.514C-136.601 275.514 -135.243 274.566 -134.966 273.35L7.39243 273.35L7.39242 273.358Z" fill="#A1FFFF"/>
<path d="M89.2793 295.357L-11.2139 295.357C-11.4909 294.14 -12.8425 293.196 -14.5541 293.192C-16.4596 293.192 -18.0051 294.347 -18.0051 295.771C-18.0051 297.194 -16.4596 298.349 -14.5541 298.349C-12.848 298.349 -11.4909 297.401 -11.2139 296.185L87.3572 296.18L66.4852 323.473L228.099 323.473L228.364 323.473L257.811 296.18L317.569 296.18C317.846 297.397 319.203 298.345 320.909 298.345C322.814 298.345 324.36 297.19 324.36 295.766C324.36 294.343 322.814 293.188 320.909 293.188C319.203 293.188 317.846 294.136 317.569 295.353L257.545 295.353L257.279 295.353L227.833 322.645L68.4129 322.645L89.2848 295.353L89.2793 295.357Z" fill="#A1FFFF"/>
<path d="M382.777 346.047H382.489L331.051 400.077L167.333 400.077L167.034 400.077L125.284 446.587L383.901 446.587C384.178 447.804 385.53 448.748 387.241 448.752C389.147 448.752 390.692 447.597 390.692 446.174C390.692 444.75 389.147 443.595 387.241 443.595C385.535 443.595 384.178 444.543 383.901 445.76L127.378 445.76L167.626 400.918L331.334 400.918L331.622 400.918L383.059 346.887L644.822 346.879C645.099 348.096 646.456 349.044 648.162 349.044C650.068 349.044 651.613 347.889 651.613 346.465C651.613 345.041 650.068 343.886 648.162 343.886C646.456 343.886 645.099 344.834 644.822 346.051L382.771 346.051L382.777 346.047Z" fill="#A1FFFF"/>
<path d="M409.615 367.773L409.338 367.773L370.48 406.485L619.758 406.485C620.034 407.702 621.386 408.645 623.098 408.649C625.003 408.649 626.549 407.495 626.549 406.071C626.549 404.647 625.003 403.492 623.098 403.492C621.392 403.492 620.034 404.44 619.758 405.657L372.718 405.657L409.897 368.613L626.15 368.613C626.133 368.708 626.072 368.795 626.078 368.89C626.078 370.314 627.623 371.469 629.529 371.469C631.434 371.469 632.98 370.314 632.98 368.89C632.98 367.466 631.434 366.312 629.529 366.312C628.166 366.312 627.003 366.916 626.449 367.777L409.62 367.777L409.615 367.773Z" fill="#A1FFFF"/>
<path d="M16.5543 350.732L241.886 350.737L242.141 350.737L281.647 317.368L324.388 317.368L352.976 339.822L312.822 381.307C312.406 381.179 311.957 381.109 311.487 381.104C309.581 381.104 308.036 382.259 308.036 383.683C308.036 385.107 309.581 386.262 311.487 386.262C313.392 386.262 314.938 385.107 314.938 383.683C314.938 382.913 314.467 382.247 313.752 381.771L354.155 340.025L354.432 339.743L325.041 316.656L324.869 316.528L281.397 316.528L281.143 316.528L241.637 349.896L18.4488 349.896L43.0486 316.524L-97.7815 316.524C-98.0585 315.307 -99.41 314.363 -101.122 314.359C-103.027 314.359 -104.573 315.514 -104.573 316.937C-104.573 318.361 -103.027 319.516 -101.122 319.516C-99.4156 319.516 -98.0585 318.568 -97.7815 317.351L41.1652 317.351L16.5654 350.724L16.5543 350.732Z" fill="#A1FFFF"/>
<path d="M273.936 375.289L274.224 375.289L303.726 344.851C304.192 345.025 304.696 345.145 305.25 345.145C307.155 345.145 308.701 343.99 308.701 342.566C308.701 341.142 307.155 339.988 305.25 339.988C303.344 339.988 301.799 341.142 301.799 342.566C301.799 343.278 302.186 343.915 302.801 344.383L273.654 374.457L126.049 374.461L59.6278 443.512C59.085 443.239 58.459 443.044 57.7555 443.04C55.85 443.04 54.3046 444.195 54.3046 445.619C54.3046 447.043 55.85 448.198 57.7555 448.198C59.6611 448.198 61.2065 447.043 61.2065 445.619C61.2065 445.031 60.8963 444.518 60.4587 444.083L126.625 375.297L273.936 375.297L273.936 375.289Z" fill="#A1FFFF"/>
<path d="M-114.194 430.996L-80.6486 402.031L17.8173 402.031C17.9391 403.372 19.396 404.444 21.2239 404.444C23.1294 404.444 24.6749 403.289 24.6749 401.866C24.6749 400.442 23.1294 399.287 21.2239 399.287C19.6397 399.287 18.3546 400.107 17.9502 401.195L-81.1637 401.199L-114.709 430.164L-272.877 430.164C-273.154 428.947 -274.512 427.999 -276.218 427.999C-278.123 427.999 -279.669 429.154 -279.669 430.578C-279.669 432.002 -278.123 433.156 -276.218 433.156C-274.512 433.156 -273.154 432.209 -272.877 430.992L-114.2 430.992L-114.194 430.996Z" fill="#A1FFFF"/>
<path d="M630.083 506.193L630.083 430.16L410.717 430.16C410.44 428.943 409.083 427.995 407.377 427.995C405.471 427.995 403.926 429.15 403.926 430.574C403.926 431.998 405.471 433.152 407.377 433.152C409.083 433.152 410.44 432.204 410.717 430.988L628.964 430.988L628.964 505.349L384.638 505.349L384.328 505.349L335.876 562.165L166.197 562.165C165.92 560.948 164.569 560.004 162.857 560C160.952 560 159.406 561.155 159.406 562.579C159.406 564.003 160.952 565.157 162.857 565.157C164.563 565.157 165.92 564.21 166.197 562.993L336.175 562.993H336.485L384.937 506.177L630.072 506.177L630.083 506.193Z" fill="#A1FFFF"/>
<path d="M362.581 481.078L598.775 481.078L598.775 452.568C600.403 452.361 601.672 451.347 601.672 450.073C601.672 448.649 600.126 447.494 598.221 447.494C596.315 447.494 594.77 448.649 594.77 450.073C594.77 451.347 596.038 452.361 597.667 452.568L597.667 480.242L361.983 480.242L311.669 538.78L169.41 538.78L216.001 474.72L43.6081 474.72L43.6081 475.556L214.129 475.556L167.538 539.616L312.29 539.616L362.603 481.078L362.581 481.078Z" fill="#A1FFFF"/>
<path d="M247.531 480.242L214.051 521.234L286.538 521.234C286.815 522.451 288.167 523.395 289.878 523.399C291.784 523.399 293.329 522.244 293.329 520.82C293.329 519.397 291.784 518.242 289.878 518.242C288.172 518.242 286.815 519.19 286.538 520.407L216.045 520.407L248.162 481.086H314.112C314.389 482.303 315.741 483.247 317.453 483.251C319.159 483.251 320.516 482.303 320.793 481.086L320.904 481.086L320.904 480.25L320.793 480.25C320.516 479.033 319.164 478.089 317.453 478.085C315.741 478.081 314.389 479.033 314.112 480.25H247.852L247.542 480.25L247.531 480.242Z" fill="#A1FFFF"/>
<path d="M11.3753 461.074L-12.4768 497L149.458 497C149.735 498.217 151.086 499.161 152.798 499.165C154.704 499.165 156.249 498.01 156.249 496.587C156.249 495.163 154.704 494.008 152.798 494.008C151.092 494.008 149.735 494.956 149.458 496.173L-10.6766 496.169L13.1755 460.242L-272.877 460.238C-273.154 459.021 -274.511 458.073 -276.217 458.073C-278.123 458.073 -279.668 459.228 -279.668 460.652C-279.668 462.076 -278.123 463.23 -276.217 463.23C-274.511 463.23 -273.154 462.283 -272.877 461.066L11.3752 461.066L11.3753 461.074Z" fill="#A1FFFF"/>
<path d="M-42.2725 481.078L-82.1552 545.183L80.4996 545.183C80.7765 546.399 82.1281 547.343 83.8398 547.347C85.7453 547.347 87.2907 546.193 87.2907 544.769C87.2907 543.345 85.7453 542.19 83.8398 542.19C82.1337 542.19 80.7765 543.138 80.4996 544.355L-80.4048 544.355L-40.5221 480.25L-272.883 480.25C-273.16 479.033 -274.511 478.089 -276.223 478.085C-278.129 478.085 -279.674 479.24 -279.674 480.664C-279.674 482.088 -278.129 483.243 -276.223 483.243C-274.517 483.243 -273.16 482.295 -272.883 481.078L-42.278 481.082L-42.2725 481.078Z" fill="#A1FFFF"/>
<path d="M71.1659 270.357C69.2604 270.357 67.715 271.512 67.715 272.936C67.715 274.36 69.2604 275.514 71.1659 275.514C72.872 275.514 74.2291 274.567 74.5061 273.35L328.104 273.35L390.554 323.349L390.726 323.477L644.712 323.485C644.712 324.909 646.257 326.064 648.163 326.064C650.068 326.064 651.614 324.909 651.614 323.485C651.614 322.062 650.068 320.907 648.163 320.907C646.656 320.907 645.404 321.644 644.933 322.649L391.213 322.649L328.764 272.65L328.592 272.522L74.5116 272.518C74.2347 271.301 72.8776 270.353 71.1715 270.353L71.1659 270.357Z" fill="#A1FFFF"/>
<path d="M-272.805 390.889L-172.6 390.889H-172.323L-115.668 335.741L-10.333 335.741L-42.3887 375.289L79.7519 375.289L25.4118 430.156L-61.826 430.16C-62.103 428.943 -63.4601 427.995 -65.1661 427.995C-67.0716 427.995 -68.6171 429.15 -68.6171 430.574C-68.6171 431.997 -67.0717 433.152 -65.1662 433.152C-63.4601 433.152 -62.103 432.204 -61.826 430.988L25.6943 430.988L25.9768 430.992L81.9676 374.453L-40.4057 374.453L-8.34997 334.905L-115.945 334.905H-116.221L-172.877 390.053L-273.027 390.053C-273.542 389.113 -274.772 388.451 -276.217 388.447C-278.123 388.447 -279.668 389.602 -279.668 391.026C-279.668 392.449 -278.123 393.604 -276.217 393.604C-274.312 393.604 -272.766 392.449 -272.766 391.026C-272.766 390.976 -272.8 390.934 -272.805 390.889V390.889Z" fill="#A1FFFF"/>
<path d="M11.3476 617.383C9.64148 617.383 8.28434 618.331 8.00738 619.548L-105.115 619.548L-126.68 577.492L54.4208 577.492C54.6978 578.709 56.0494 579.652 57.761 579.656C59.6665 579.656 61.2119 578.502 61.2119 577.078C61.2119 575.654 59.6665 574.499 57.761 574.499C56.0549 574.499 54.6978 575.447 54.4208 576.664L-128.297 576.664L-105.88 620.392L8.01843 620.392C8.2954 621.609 9.65253 622.557 11.3586 622.557C13.2641 622.557 14.8096 621.402 14.8096 619.978C14.8096 618.555 13.2641 617.4 11.3586 617.4L11.3476 617.383Z" fill="#A1FFFF"/>
<path d="M-87.6169 596.216C-89.5224 596.216 -91.0678 597.371 -91.0678 598.795C-91.0678 600.219 -89.5224 601.374 -87.6169 601.374C-85.9108 601.374 -84.5537 600.426 -84.2767 599.209H36.5899C37.0053 600.289 38.2794 601.092 39.8525 601.092C41.758 601.092 43.3035 599.937 43.3035 598.514C43.3035 597.09 41.758 595.935 39.8525 595.935C38.0135 595.935 36.54 597.019 36.4403 598.377L-84.2823 598.377C-84.5592 597.16 -85.9108 596.216 -87.6224 596.212L-87.6169 596.216Z" fill="#A1FFFF"/>
<path d="M314.938 428.144C316.843 428.144 318.389 426.989 318.389 425.566C318.389 424.142 316.843 422.987 314.938 422.987C313.231 422.987 311.874 423.935 311.597 425.152L190.055 425.152C189.778 423.935 188.426 422.991 186.715 422.987C184.809 422.987 183.264 424.142 183.264 425.565C183.264 426.989 184.809 428.144 186.715 428.144C188.421 428.144 189.778 427.196 190.055 425.979L311.597 425.979C311.874 427.196 313.226 428.14 314.938 428.144V428.144Z" fill="#A1FFFF"/>
<path d="M429.745 458.632C427.839 458.632 426.294 459.787 426.294 461.211C426.294 462.634 427.839 463.789 429.745 463.789C431.451 463.789 432.808 462.841 433.085 461.624L556.112 461.624C556.389 462.841 557.74 463.785 559.452 463.789C561.357 463.789 562.903 462.634 562.903 461.211C562.903 459.787 561.357 458.632 559.452 458.632C557.746 458.632 556.389 459.58 556.112 460.797L433.085 460.797C432.808 459.58 431.456 458.636 429.745 458.632Z" fill="#A1FFFF"/>
<path d="M605.671 385.38C603.965 385.38 602.608 386.328 602.331 387.545L433.084 387.545C432.807 386.328 431.45 385.38 429.744 385.38C427.839 385.38 426.293 386.535 426.293 387.959C426.293 389.382 427.839 390.537 429.744 390.537C431.45 390.537 432.807 389.589 433.084 388.372L602.331 388.372C602.608 389.589 603.959 390.533 605.671 390.537C607.576 390.537 609.122 389.382 609.122 387.959C609.122 386.535 607.576 385.38 605.671 385.38V385.38Z" fill="#A1FFFF"/>
<path d="M127.456 300.994C125.55 300.994 124.005 302.149 124.005 303.573C124.005 304.996 125.55 306.151 127.456 306.151C129.162 306.151 130.519 305.203 130.796 303.987L205 303.986C205.277 305.203 206.628 306.147 208.34 306.151C210.246 306.151 211.791 304.996 211.791 303.573C211.791 302.149 210.246 300.994 208.34 300.994C206.634 300.994 205.277 301.942 205 303.159L130.796 303.159C130.519 301.942 129.167 300.998 127.456 300.994Z" fill="#A1FFFF"/>
</g>
</svg>
