<?xml version="1.0" encoding="utf-8"?>
<!-- Generator: Adobe Illustrator 24.3.0, SVG Export Plug-In . SVG Version: 6.00 Build 0)  -->
<svg version="1.1" id="Layer_1" xmlns="http://www.w3.org/2000/svg" xmlns:xlink="http://www.w3.org/1999/xlink" x="0px" y="0px"
	 viewBox="0 0 931.3 536.7" style="enable-background:new 0 0 931.3 536.7;" xml:space="preserve">
<style type="text/css">
	.st0{opacity:0.2;}
	.st1{fill:#A1FFFF;}
</style>
<g class="st0">
	<path class="st1" d="M644.2,481l-27.6,51.5H439.9c-0.3-1.7-1.6-3-3.3-3c-1.9,0-3.5,1.6-3.5,3.6c0,2,1.5,3.6,3.5,3.6
		c1.7,0,3.1-1.3,3.3-3l177.4,0l27.6-51.5h141.7c0.3,1.7,1.6,3,3.3,3c1.9,0,3.5-1.6,3.5-3.6c0-2-1.5-3.6-3.5-3.6
		c-1.7,0-3.1,1.3-3.3,3L644.2,481L644.2,481z"/>
	<path class="st1" d="M562.3,450.7h100.5c0.3,1.7,1.6,3,3.3,3c1.9,0,3.5-1.6,3.5-3.6c0-2-1.5-3.6-3.5-3.6c-1.7,0-3.1,1.3-3.3,3
		l-98.6,0l20.9-37.6H423.5h-0.3l-29.4,37.6H334c-0.3-1.7-1.6-3-3.3-3c-1.9,0-3.5,1.6-3.5,3.6s1.5,3.6,3.5,3.6c1.7,0,3.1-1.3,3.3-3
		h60h0.3l29.4-37.6h159.4L562.3,450.7L562.3,450.7z"/>
	<path class="st1" d="M635.1,374.5l-225.3,0h-0.3l-39.5,46h-42.7l-28.6-30.9l40.2-57.1c0.4,0.2,0.9,0.3,1.3,0.3
		c1.9,0,3.5-1.6,3.5-3.6c0-2-1.5-3.6-3.5-3.6c-1.9,0-3.5,1.6-3.5,3.6c0,1.1,0.5,2,1.2,2.6l-40.4,57.5l-0.3,0.4l29.4,31.8l0.2,0.2
		h43.5h0.3l39.5-46h223.2l-24.6,46h140.8c0.3,1.7,1.6,3,3.3,3c1.9,0,3.5-1.6,3.5-3.6c0-2-1.5-3.6-3.5-3.6c-1.7,0-3.1,1.3-3.3,3
		H610.4L635.1,374.5L635.1,374.5z"/>
	<path class="st1" d="M377.7,340.6h-0.3l-29.5,41.9c-0.5-0.2-1-0.4-1.5-0.4c-1.9,0-3.5,1.6-3.5,3.6c0,2,1.5,3.6,3.5,3.6
		c1.9,0,3.5-1.6,3.5-3.6c0-1-0.4-1.9-1-2.5l29.1-41.4l147.6,0l66.4-95.1c0.5,0.4,1.2,0.6,1.9,0.7c1.9,0,3.5-1.6,3.5-3.6
		c0-2-1.5-3.6-3.5-3.6c-1.9,0-3.5,1.6-3.5,3.6c0,0.8,0.3,1.5,0.7,2.1L525,340.6L377.7,340.6L377.7,340.6z"/>
	<path class="st1" d="M765.8,263.9l-33.5,39.9h-98.5c-0.1-1.8-1.6-3.3-3.4-3.3c-1.9,0-3.5,1.6-3.5,3.6c0,2,1.5,3.6,3.5,3.6
		c1.6,0,2.9-1.1,3.3-2.6l99.1,0l33.5-39.9h158.2c0.3,1.7,1.6,3,3.3,3c1.9,0,3.5-1.6,3.5-3.6s-1.5-3.6-3.5-3.6c-1.7,0-3.1,1.3-3.3,3
		L765.8,263.9L765.8,263.9z"/>
	<path class="st1" d="M289,194.9H52.8v39.3c-1.6,0.3-2.9,1.7-2.9,3.4c0,2,1.5,3.6,3.5,3.6c1.9,0,3.5-1.6,3.5-3.6
		c0-1.8-1.3-3.2-2.9-3.4V196h235.7l50.3-80.6h142.3l-46.6,88.2H608l0-1.2H437.5l46.6-88.2H339.3L289,194.9L289,194.9z"/>
	<path class="st1" d="M640.2,222.5l23.9-49.5H502.2c-0.3-1.7-1.6-3-3.3-3c-1.9,0-3.5,1.6-3.5,3.6c0,2,1.5,3.6,3.5,3.6
		c1.7,0,3.1-1.3,3.3-3l160.1,0l-23.9,49.5l286.1,0c0.3,1.7,1.6,3,3.3,3c1.9,0,3.5-1.6,3.5-3.6c0-2-1.5-3.6-3.5-3.6
		c-1.7,0-3.1,1.3-3.3,3L640.2,222.5L640.2,222.5z"/>
	<path class="st1" d="M693.9,194.9l39.9-88.3H571.1c-0.3-1.7-1.6-3-3.3-3c-1.9,0-3.5,1.6-3.5,3.6c0,2,1.5,3.6,3.5,3.6
		c1.7,0,3.1-1.3,3.3-3H732L692.1,196h232.4c0.3,1.7,1.6,3,3.3,3c1.9,0,3.5-1.6,3.5-3.6c0-2-1.5-3.6-3.5-3.6c-1.7,0-3.1,1.3-3.3,3
		H693.9L693.9,194.9z"/>
	<path class="st1" d="M921,162.2c0.3,1.7,1.6,3,3.3,3c1.9,0,3.5-1.6,3.5-3.6c0-2-1.5-3.6-3.5-3.6c-1.7,0-3.1,1.3-3.3,3l-163.1,0
		l21.6-64.8l141.6,0c0.4,1.6,1.7,2.7,3.3,2.7c1.6,0,2.9-1.2,3.3-2.7h0.2v-1.2h-0.1c-0.2-1.8-1.6-3.2-3.4-3.2c-1.8,0-3.2,1.4-3.4,3.2
		H779.1h-0.4l-22.4,67.1L921,162.2L921,162.2z"/>
	<path class="st1" d="M805.2,128.1c-0.2-1.7-1.6-3.1-3.4-3.1c-1.9,0-3.5,1.6-3.5,3.6s1.5,3.6,3.5,3.6c1.7,0,3-1.3,3.3-2.9H921
		c0.3,1.7,1.6,3,3.3,3c1.7,0,3.1-1.3,3.3-3h0.1v-0.6l0-0.6h-0.1c-0.3-1.7-1.6-3-3.3-3c-1.7,0-3.1,1.3-3.3,3L805.2,128.1z"/>
	<path class="st1" d="M580.4,485.2c1.9,0,3.5-1.6,3.5-3.6c0-2-1.5-3.6-3.5-3.6c-1.7,0-3.1,1.3-3.3,3H323.5l-62.4-68.9l-0.2-0.2
		l-254,0c0-2-1.5-3.6-3.5-3.6C1.5,408.4,0,410,0,412s1.5,3.6,3.5,3.6c1.5,0,2.8-1,3.2-2.4h253.7l62.4,68.9l0.2,0.2l254.1,0
		C577.4,483.9,578.7,485.2,580.4,485.2L580.4,485.2z"/>
	<path class="st1" d="M797.1,294.4c0-2-1.5-3.6-3.5-3.6c-1.9,0-3.5,1.6-3.5,3.6c0,0.9,0.3,1.7,0.9,2.3l-58.8,74
		c-0.5-0.3-1-0.5-1.6-0.5c-1.9,0-3.5,1.6-3.5,3.6c0,2,1.5,3.6,3.5,3.6c1.9,0,3.5-1.6,3.5-3.6c0-0.9-0.4-1.8-1-2.4l58.8-74
		c0.5,0.3,1.1,0.5,1.7,0.5C795.6,297.9,797.1,296.3,797.1,294.4L797.1,294.4z"/>
	<path class="st1" d="M924.4,319.1H824.2h-0.3l-56.7,76H661.9l32.1-54.5H571.9l54.3-75.6l87.2,0c0.3,1.7,1.6,3,3.3,3
		c1.9,0,3.5-1.6,3.5-3.6c0-2-1.5-3.6-3.5-3.6c-1.7,0-3.1,1.3-3.3,3h-87.5l-0.3,0l-56,77.9H692L660,396.3h107.6h0.3l56.7-76h100.1
		c0.5,1.3,1.7,2.2,3.2,2.2c1.9,0,3.5-1.6,3.5-3.6c0-2-1.5-3.6-3.5-3.6c-1.9,0-3.5,1.6-3.5,3.6C924.4,319,924.4,319.1,924.4,319.1z"
		/>
	<path class="st1" d="M640.3,7.1c1.7,0,3.1-1.3,3.3-3h113.1l21.6,57.9H597.2c-0.3-1.7-1.6-3-3.3-3c-1.9,0-3.5,1.6-3.5,3.6
		s1.5,3.6,3.5,3.6c1.7,0,3.1-1.3,3.3-3h182.7L757.5,3H643.6c-0.3-1.7-1.6-3-3.3-3c-1.9,0-3.5,1.6-3.5,3.6
		C636.8,5.5,638.3,7.1,640.3,7.1L640.3,7.1z"/>
	<path class="st1" d="M739.2,36.3c1.9,0,3.5-1.6,3.5-3.6s-1.5-3.6-3.5-3.6c-1.7,0-3.1,1.3-3.3,3H615c-0.4-1.5-1.7-2.6-3.3-2.6
		c-1.9,0-3.5,1.6-3.5,3.6c0,2,1.5,3.6,3.5,3.6c1.8,0,3.3-1.5,3.4-3.4h120.7C736.2,35,737.5,36.3,739.2,36.3L739.2,36.3z"/>
	<path class="st1" d="M678.1,138.3c1.9,0,3.5-1.6,3.5-3.6c0-2-1.5-3.6-3.5-3.6c-1.9,0-3.5,1.6-3.5,3.6
		C674.7,136.8,676.2,138.3,678.1,138.3z"/>
</g>
</svg>
