<svg width="1440" height="575" viewBox="0 0 1440 575" fill="none" xmlns="http://www.w3.org/2000/svg">
<path d="M1267.28 461.344C1391.71 514.997 1372.95 571.421 1591.64 528.044L1659.95 454.823L1543.15 254.164L165.784 157.047L-303.751 279.482C-169.698 353.217 -99.8397 419.883 59.1897 419.992C173.776 420.07 267.384 365 381.963 364.712C543.892 364.306 633.12 430.425 794.204 446.695C989.193 466.39 1142.85 407.692 1267.28 461.344Z" fill="url(#paint0_linear_1507_1305)"/>
<path d="M1315.38 446.131C1449.46 520.059 1427.43 601.466 1666.93 533.886L1743.43 427.168L1621.8 142.151L123.693 36.5208L-391.37 223.659C-247.372 326.164 -173.125 420.096 0.156194 416.362C125.012 413.671 228.557 332.375 353.416 329.158C529.87 324.613 625.239 417.289 800.305 436.689C1012.22 460.173 1181.3 372.203 1315.38 446.131Z" fill="white"/>
<path fill-rule="evenodd" clip-rule="evenodd" d="M1666.57 533.431L1742.79 427.105L1621.4 142.658L123.78 37.0617L-390.214 223.812C-360.684 244.865 -334.082 265.549 -308.958 285.086C-303.728 289.152 -298.562 293.169 -293.448 297.129C-263.53 320.291 -235.356 341.509 -206.274 359.406C-148.131 395.186 -86.3616 417.694 0.143331 415.829C62.453 414.486 119.459 393.53 176.575 372.462L177.14 372.253C234.037 351.266 291.06 330.232 353.4 328.626C441.748 326.35 509.793 348.417 577.592 373.449C584.784 376.104 591.973 378.793 599.183 381.489C659.948 404.215 722.205 427.498 800.373 436.16C890.487 446.147 972.84 435.963 1048.12 426.655C1061.28 425.027 1074.23 423.426 1086.96 421.965C1172.47 412.149 1248.44 408.607 1315.67 445.672C1349.24 464.18 1373.03 483.157 1393.57 500.136C1395.41 501.653 1397.22 503.155 1399 504.638C1417.23 519.76 1433.2 533.011 1451.9 542.607C1492.85 563.632 1546.99 567.153 1666.57 533.431ZM1392.81 500.934C1372.29 483.968 1348.56 465.046 1315.09 446.59C1248.23 409.727 1172.62 413.206 1087.1 423.023C1074.38 424.483 1061.45 426.082 1048.29 427.709C973.016 437.018 890.507 447.222 800.239 437.219C721.912 428.539 659.516 405.203 598.759 382.479C591.548 379.782 584.36 377.094 577.171 374.44C509.406 349.42 441.539 327.422 353.432 329.691C291.294 331.292 234.43 352.267 177.474 373.277L176.995 373.453C119.91 394.51 62.716 415.547 0.169828 416.895C-86.6068 418.765 -148.601 396.174 -206.902 360.295C-236.042 342.363 -264.259 321.112 -294.177 297.949C-299.295 293.986 -304.463 289.968 -309.694 285.901C-335.048 266.186 -361.884 245.32 -391.716 224.083L-392.525 223.508L123.608 35.9805L1622.19 141.645L1744.07 427.231L1667.29 534.341L1667.1 534.396C1547.32 568.195 1492.75 564.796 1451.35 543.541C1432.53 533.884 1416.47 520.551 1398.26 505.447C1396.47 503.959 1394.65 502.454 1392.81 500.934Z" fill="white"/>
<defs>
<linearGradient id="paint0_linear_1507_1305" x1="668.324" y1="487.888" x2="689.05" y2="193.942" gradientUnits="userSpaceOnUse">
<stop stop-color="#023147"/>
<stop offset="0.541667" stop-color="white"/>
</linearGradient>
</defs>
</svg>
