<svg width="1440" height="539" viewBox="0 0 1440 539" fill="none" xmlns="http://www.w3.org/2000/svg">
<path d="M220.309 106.944C111.379 56.6125 127.801 3.68069 -63.6344 44.3728L-123.438 113.062L-21.1896 301.301L1184.57 392.408L1595.61 277.551C1478.25 208.379 1417.1 145.84 1277.88 145.737C1177.57 145.664 1095.63 197.325 995.325 197.595C853.571 197.977 775.46 135.949 634.445 120.686C463.75 102.211 329.239 157.276 220.309 106.944Z" fill="url(#paint0_linear_1507_1075)"/>
<path d="M178.205 121.216C60.83 51.8637 80.112 -24.5053 -129.55 38.8926L-196.516 139.005L-90.0373 406.381L1221.42 505.474L1672.31 329.918C1546.25 233.758 1481.25 145.639 1329.56 149.142C1220.26 151.667 1129.62 227.931 1020.31 230.949C865.845 235.213 782.358 148.273 629.103 130.073C443.591 108.043 295.58 190.568 178.205 121.216Z" fill="white"/>
<path fill-rule="evenodd" clip-rule="evenodd" d="M-129.234 39.3196L-195.954 139.065L-89.6882 405.906L1221.34 504.967L1671.3 329.775C1645.44 310.026 1622.16 290.621 1600.16 272.294C1595.58 268.479 1591.06 264.711 1586.59 260.997C1560.4 239.268 1535.73 219.363 1510.27 202.574C1459.37 169.008 1405.3 147.894 1329.57 149.643C1275.03 150.902 1225.12 170.562 1175.12 190.326L1174.63 190.521C1124.82 210.21 1074.9 229.942 1020.33 231.449C942.988 233.584 883.421 212.883 824.069 189.4C817.773 186.909 811.48 184.387 805.168 181.857C751.974 160.538 697.473 138.696 629.044 130.57C550.158 121.202 478.065 130.755 412.166 139.487C400.644 141.014 389.311 142.516 378.164 143.887C303.303 153.095 236.798 156.418 177.951 121.647C148.565 104.284 127.734 86.482 109.753 70.5541C108.146 69.1304 106.561 67.7219 104.996 66.3303C89.0404 52.1446 75.0579 39.7132 58.6941 30.7113C22.8407 10.9879 -24.5503 7.68433 -129.234 39.3196ZM110.416 69.8056C128.383 85.7211 149.157 103.472 178.459 120.786C236.986 155.367 303.175 152.103 378.042 142.894C389.174 141.525 400.497 140.024 412.014 138.498C477.911 129.765 550.14 120.193 629.162 129.577C697.73 137.72 752.351 159.611 805.539 180.928C811.852 183.458 818.144 185.98 824.437 188.47C883.76 211.941 943.171 232.578 1020.3 230.449C1074.7 228.947 1124.48 209.271 1174.34 189.561L1174.76 189.396C1224.73 169.642 1274.8 149.907 1329.55 148.643C1405.51 146.888 1459.79 168.082 1510.82 201.739C1536.33 218.562 1561.03 238.498 1587.22 260.227C1591.7 263.944 1596.23 267.714 1600.81 271.53C1623 290.023 1646.49 309.599 1672.61 329.521L1673.32 330.061L1221.49 505.981L-90.3862 406.856L-197.078 138.946L-129.867 38.466L-129.695 38.4142C-24.8364 6.70692 22.9307 9.89609 59.1761 29.8351C75.6439 38.8942 89.7114 51.402 105.648 65.5713C107.218 66.9672 108.806 68.3792 110.416 69.8056Z" fill="white"/>
<defs>
<linearGradient id="paint0_linear_1507_1075" x1="744.642" y1="82.0433" x2="723.821" y2="357.594" gradientUnits="userSpaceOnUse">
<stop stop-color="#023147"/>
<stop offset="0.541667" stop-color="white"/>
</linearGradient>
</defs>
</svg>
