<svg width="540" height="946" viewBox="0 0 540 946" fill="none" xmlns="http://www.w3.org/2000/svg">
<path d="M200 0.199951H197.8V62.4L130.5 101.3L63.2 62.4V0.199951H60.9999V62.4L-6.30003 101.3L-73.6001 62.4V0.199951H-75.8V62.4L-143.1 101.3L-210.4 62.4V0.199951H-212.6V62.4L-236.3 76.0999V78.8999L-211.5 64.5999L-144.2 103.5V181L-201.5 214.1C-201 214.7 -200.6 215.4 -200.1 216L-143.1 183.1L-75.8 222V299.5L-132.9 332.5C-132.6 333.2 -132.2 334 -131.9 334.7L-74.7 301.7L-7.40004 340.6V418.1L-74.7 457L-95.6001 445C-95.4001 446 -95.2 447.1 -94.9 448.1L-75.8 459.1V536.6L-81.6001 540C-81.5 540.9 -81.5 541.8 -81.4 542.7L-74.7 538.8L-7.40004 577.7V655.2L-74.7 694.1L-89.1001 685.8C-89.2001 686.6 -89.4 687.4 -89.5 688.3L-75.8 696.2V773.7L-119.9 799.2C-120.4 800.4 -120.8 801.6 -121.2 802.8L-74.7 775.9L-7.40004 814.8V892.3L-74.7 931.2L-108.8 911.5C-107.9 912.9 -107 914.3 -106.1 915.8L-75.7 933.3V942.9C-75 942.6 -74.2 942.3 -73.5 942.1V933.4L-6.20006 894.5L30.5999 915.7C31.8 915.5 33.0999 915.3 34.2999 915.1L-5.10005 892.4V814.9L62.2 776L129.5 814.9V892.4L101.6 908.5C103.3 908.4 104.9 908.4 106.6 908.3L130.5 894.5L155.3 908.8C157 908.9 158.6 908.9 160.3 909L131.6 892.4V814.9L198.9 776L266.2 814.9V892.4L225.1 916.1C226.3 916.3 227.5 916.5 228.7 916.8L267.3 894.5L334.6 933.4V944.7C335.3 945 336.1 945.3 336.8 945.5V933.4L404.1 894.5L422.1 904.9C422.6 904.3 423.1 903.7 423.5 903L405.2 892.4V814.9L472.5 776L490 786.1C490.3 785.4 490.6 784.6 491 783.9L473.6 773.9V696.4L528 665C528.2 664 528.5 662.9 528.7 661.9L472.5 694.3L405.2 655.4V577.9L472.5 539L539.2 577.5C539.2 576.6 539.4 575.7 539.4 574.8L473.6 536.8V459.3L529.2 427.2C529 426.4 528.9 425.6 528.7 424.8L472.4 457.3L405.1 418.4V340.9L472.4 302L496.6 316C496.1 314.8 495.7 313.6 495.2 312.4L473.4 299.8V264.8C472.7 263.3 472 261.9 471.2 260.4V299.8L403.9 338.7L336.6 299.8V222.3L403.9 183.4L437.6 202.9C437.1 202.2 436.7 201.4 436.2 200.6C435.7 199.9 435.2 199.2 434.7 198.5L405 181.4V158.1C404.3 157.2 403.6 156.2 402.8 155.3V181.4L335.5 220.3L268.2 181.4V103.9L322.6 72.5C321.9 71.9 321.3 71.4 320.7 70.8L267.2 101.7L200 62.4V0.199951ZM62.0999 64.5999L129.4 103.5V181L62.0999 219.9L-5.20006 181V103.5L62.0999 64.5999ZM199 538.4L266.3 577.3V654.8L199 693.6L131.7 654.7V577.2L199 538.4ZM130.5 575.1L63.2 536.2V458.7L130.5 419.8L197.8 458.7V536.2L130.5 575.1ZM200 536.2V458.7L267.3 419.8L334.6 458.7V536.2L267.3 575.1L200 536.2ZM199 456.7L131.7 417.8V340.3L199 301.4L266.3 340.3V417.8L199 456.7ZM130.5 338.2L63.2 299.3V221.8L130.5 182.9L197.8 221.8V299.3L130.5 338.2ZM-142 180.9V103.4L-74.7 64.5L-7.40004 103.4V180.9L-74.7 219.8L-142 180.9ZM-73.6001 299.3V221.8L-6.30003 182.9L60.9999 221.8V299.3L-6.30003 338.2L-73.6001 299.3ZM-5.20006 340.3L62.0999 301.4L129.4 340.3V417.8L62.0999 456.7L-5.20006 417.8V340.3ZM-73.6001 536.2V458.7L-6.30003 419.8L60.9999 458.7V536.2L-6.30003 575.1L-73.6001 536.2ZM-5.20006 577.2L62.0999 538.3L129.4 577.2V654.7L62.0999 693.6L-5.20006 654.7V577.2ZM-6.30003 812L-73.6001 773.1V695.6L-6.30003 656.7L60.9999 695.6V773.1L-6.30003 812ZM130.5 812L63.2 773.1V695.6L130.5 656.7L197.8 695.6V773.1L130.5 812ZM200 773.1V695.6L267.3 656.7L334.6 695.6V773.1L267.4 812L200 773.1ZM403.1 891.6L335.8 930.5L268.5 891.6V814.1L335.8 775.2L403.1 814.1V891.6ZM471.5 695.6V773.1L404.2 812L336.9 773.1V695.6L404.2 656.7L471.5 695.6ZM403.1 654.7L335.8 693.6L268.5 654.7V577.2L335.8 538.3L403.1 577.2V654.7ZM471.5 458.7V536.2L404.2 575.1L336.9 536.2V458.7L404.2 419.8L471.5 458.7ZM403.1 340.3V417.8L335.8 456.7L268.5 417.8V340.3L335.8 301.4L403.1 340.3ZM334.7 221.8V299.3L267.4 338.2L200 299.3V221.8L267.3 182.9L334.7 221.8ZM266.3 103.4V180.9L199 219.8L131.7 180.9V103.4L199 64.5999L266.3 103.4Z" fill="url(#paint0_radial_1306_1436)"/>
<defs>
<radialGradient id="paint0_radial_1306_1436" cx="0" cy="0" r="1" gradientUnits="userSpaceOnUse" gradientTransform="translate(-68.938 536.428) rotate(-33.6364) scale(607.053 614.184)">
<stop stop-color="white"/>
<stop offset="0.0899998" stop-color="#F8F8F8" stop-opacity="0.91"/>
<stop offset="0.2167" stop-color="#E6E6E6" stop-opacity="0.7833"/>
<stop offset="0.365" stop-color="#C8C8C8" stop-opacity="0.635"/>
<stop offset="0.5299" stop-color="#9E9E9E" stop-opacity="0.4701"/>
<stop offset="0.7084" stop-color="#686868" stop-opacity="0.2916"/>
<stop offset="0.8954" stop-color="#272727" stop-opacity="0.1046"/>
<stop offset="1" stop-opacity="0"/>
</radialGradient>
</defs>
</svg>
