<svg width="1440" height="703" viewBox="0 0 1440 703" fill="none" xmlns="http://www.w3.org/2000/svg">
<path d="M220.309 106.944C111.379 56.6125 127.801 3.68069 -63.6344 44.3728L-123.438 113.062L-21.1896 301.301L1184.57 392.408L1595.61 277.551C1478.25 208.379 1417.1 145.84 1277.88 145.737C1177.57 145.664 1095.63 197.325 995.325 197.595C853.571 197.977 775.46 135.949 634.445 120.686C463.75 102.211 329.239 157.276 220.309 106.944Z" fill="url(#paint0_linear_707_920)"/>
<path d="M1190.15 590.693C1299.09 641.024 1282.66 693.956 1474.1 653.264L1533.9 584.575L1431.65 396.336L225.894 305.229L-185.141 420.086C-67.7901 489.258 -6.63556 551.797 132.58 551.9C232.891 551.973 314.835 500.312 415.139 500.042C556.893 499.66 635.004 561.688 776.019 576.951C946.714 595.426 1081.22 540.361 1190.15 590.693Z" fill="url(#paint1_linear_707_920)"/>
<path d="M1262.27 582.137C1379.64 651.489 1360.36 727.858 1570.02 664.46L1636.99 564.348L1530.51 296.972L219.054 197.879L-231.837 373.435C-105.78 469.595 -40.7836 557.714 110.909 554.211C220.209 551.686 310.853 475.422 420.155 472.404C574.626 468.14 658.112 555.08 811.367 573.28C996.879 595.31 1144.89 512.785 1262.27 582.137Z" fill="white"/>
<path fill-rule="evenodd" clip-rule="evenodd" d="M1569.7 664.034L1636.42 564.288L1530.16 297.447L219.13 198.386L-230.826 373.578C-204.975 393.328 -181.687 412.732 -159.693 431.059C-155.115 434.874 -150.593 438.642 -146.115 442.357C-119.925 464.085 -95.2611 483.99 -69.8022 500.779C-18.904 534.345 35.1699 555.46 110.897 553.711C165.444 552.451 215.348 532.792 265.347 513.027L265.842 512.832C315.65 493.143 365.568 473.411 420.141 471.905C497.482 469.77 557.049 490.471 616.401 513.953C622.697 516.444 628.99 518.967 635.302 521.496C688.496 542.815 742.997 564.657 811.426 572.783C890.312 582.152 962.405 572.599 1028.3 563.866C1039.83 562.339 1051.16 560.838 1062.31 559.467C1137.17 550.258 1203.67 546.936 1262.52 581.707C1291.91 599.069 1312.74 616.871 1330.72 632.799C1332.32 634.223 1333.91 635.631 1335.47 637.023C1351.43 651.209 1365.41 663.64 1381.78 672.642C1417.63 692.365 1465.02 695.669 1569.7 664.034ZM1330.05 633.548C1312.09 617.632 1291.31 599.881 1262.01 582.568C1203.48 547.986 1137.3 551.25 1062.43 560.459C1051.3 561.828 1039.97 563.329 1028.46 564.855C962.559 573.588 890.33 583.161 811.308 573.776C742.74 565.634 688.119 543.742 634.931 522.425C628.618 519.895 622.326 517.373 616.033 514.883C556.71 491.412 497.299 470.775 420.169 472.904C365.773 474.406 315.994 494.083 266.134 513.792L265.715 513.957C215.742 533.711 165.674 553.446 110.92 554.71C34.9552 556.465 -19.3155 535.272 -70.3528 501.614C-95.8617 484.792 -120.563 464.856 -146.754 443.126C-151.234 439.409 -155.758 435.639 -160.338 431.824C-182.532 413.33 -206.025 393.754 -232.14 373.833L-232.848 373.292L218.979 197.372L1530.86 296.497L1637.55 564.407L1570.34 664.887L1570.17 664.939C1465.31 696.646 1417.54 693.457 1381.29 673.518C1364.83 664.459 1350.76 651.951 1334.82 637.782C1333.25 636.386 1331.66 634.974 1330.05 633.548Z" fill="white"/>
<path d="M178.205 121.216C60.8302 51.8637 80.1122 -24.5053 -129.55 38.8926L-196.516 139.005L-90.037 406.381L1221.42 505.474L1672.31 329.918C1546.25 233.758 1481.25 145.639 1329.56 149.142C1220.26 151.667 1129.62 227.931 1020.32 230.949C865.845 235.213 782.358 148.273 629.103 130.073C443.592 108.043 295.58 190.568 178.205 121.216Z" fill="white"/>
<path fill-rule="evenodd" clip-rule="evenodd" d="M-129.234 39.3194L-195.954 139.065L-89.688 405.906L1221.34 504.967L1671.3 329.775C1645.45 310.026 1622.16 290.621 1600.16 272.294C1595.59 268.479 1591.06 264.711 1586.59 260.996C1560.4 239.268 1535.73 219.363 1510.27 202.574C1459.37 169.008 1405.3 147.893 1329.57 149.642C1275.03 150.902 1225.12 170.561 1175.12 190.326L1174.63 190.521C1124.82 210.21 1074.9 229.942 1020.33 231.448C942.989 233.583 883.421 212.882 824.069 189.4C817.773 186.909 811.48 184.386 805.168 181.857C751.974 160.538 697.474 138.696 629.044 130.57C550.158 121.201 478.065 130.754 412.167 139.487C400.644 141.014 389.311 142.515 378.164 143.886C303.303 153.095 236.799 156.417 177.951 121.647C148.565 104.284 127.734 86.4818 109.753 70.5539C108.146 69.1302 106.562 67.7217 104.996 66.3301C89.0406 52.1444 75.0581 39.713 58.6943 30.7111C22.8409 10.9877 -24.55 7.68414 -129.234 39.3194ZM110.416 69.8054C128.383 85.7209 149.158 103.472 178.459 120.786C236.987 155.367 303.175 152.103 378.042 142.894C389.174 141.525 400.497 140.024 412.014 138.498C477.911 129.765 550.141 120.192 629.162 129.577C697.73 137.719 752.352 159.611 805.539 180.928C811.852 183.458 818.144 185.98 824.437 188.47C883.76 211.941 943.171 232.578 1020.3 230.449C1074.7 228.947 1124.48 209.27 1174.34 189.561L1174.76 189.396C1224.73 169.642 1274.8 149.907 1329.55 148.643C1405.52 146.888 1459.79 168.081 1510.82 201.739C1536.33 218.561 1561.03 238.497 1587.22 260.227C1591.7 263.944 1596.23 267.714 1600.81 271.529C1623 290.023 1646.49 309.599 1672.61 329.52L1673.32 330.061L1221.49 505.981L-90.386 406.856L-197.077 138.946L-129.866 38.4658L-129.695 38.414C-24.8362 6.70674 22.9309 9.8959 59.1763 29.8349C75.6441 38.894 89.7116 51.4018 105.648 65.5712C107.218 66.967 108.806 68.379 110.416 69.8054Z" fill="white"/>
<defs>
<linearGradient id="paint0_linear_707_920" x1="744.642" y1="82.0433" x2="723.821" y2="357.594" gradientUnits="userSpaceOnUse">
<stop stop-color="#023147"/>
<stop offset="0.541667" stop-color="white"/>
</linearGradient>
<linearGradient id="paint1_linear_707_920" x1="665.822" y1="615.594" x2="686.643" y2="340.043" gradientUnits="userSpaceOnUse">
<stop stop-color="#023147"/>
<stop offset="0.541667" stop-color="white"/>
</linearGradient>
</defs>
</svg>
