<svg width="61" height="62" viewBox="0 0 61 62" fill="none" xmlns="http://www.w3.org/2000/svg">
<path d="M46.7618 11.4153C46.0401 11.4153 45.3346 11.6293 44.7345 12.0303C44.1344 12.4313 43.6666 13.0012 43.3904 13.668C43.1142 14.3348 43.042 15.0685 43.1828 15.7764C43.3236 16.4843 43.6711 17.1345 44.1815 17.6448C44.6918 18.1552 45.342 18.5027 46.0499 18.6435C46.7578 18.7843 47.4915 18.7121 48.1583 18.4359C48.8251 18.1597 49.395 17.692 49.796 17.0919C50.197 16.4918 50.411 15.7862 50.411 15.0645C50.411 14.0967 50.0265 13.1685 49.3422 12.4841C48.6578 11.7998 47.7296 11.4153 46.7618 11.4153ZM60.7503 18.7745C60.6912 16.2514 60.2186 13.7551 59.3515 11.3849C58.5782 9.35699 57.3748 7.52068 55.8239 6.00239C54.3181 4.44367 52.4775 3.24781 50.4414 2.50527C48.0775 1.61171 45.5784 1.12835 43.0518 1.07601C39.8284 0.893555 38.7945 0.893555 30.523 0.893555C22.2516 0.893555 21.2176 0.893555 17.9942 1.07601C15.4676 1.12835 12.9685 1.61171 10.6046 2.50527C8.57229 3.25532 6.73328 4.45016 5.22212 6.00239C3.66339 7.50821 2.46753 9.3488 1.725 11.3849C0.83144 13.7488 0.348075 16.2479 0.29574 18.7745C0.113281 21.9979 0.113281 23.0318 0.113281 31.3033C0.113281 39.5747 0.113281 40.6087 0.29574 43.8321C0.348075 46.3587 0.83144 48.8578 1.725 51.2217C2.46753 53.2578 3.66339 55.0984 5.22212 56.6042C6.73328 58.1564 8.57229 59.3513 10.6046 60.1013C12.9685 60.9949 15.4676 61.4782 17.9942 61.5306C21.2176 61.713 22.2516 61.713 30.523 61.713C38.7945 61.713 39.8284 61.713 43.0518 61.5306C45.5784 61.4782 48.0775 60.9949 50.4414 60.1013C52.4775 59.3588 54.3181 58.1629 55.8239 56.6042C57.3816 55.0916 58.5862 53.2536 59.3515 51.2217C60.2186 48.8515 60.6912 46.3552 60.7503 43.8321C60.7503 40.6087 60.9328 39.5747 60.9328 31.3033C60.9328 23.0318 60.9328 21.9979 60.7503 18.7745ZM55.2766 43.4672C55.2544 45.3975 54.9048 47.3101 54.2426 49.1234C53.7571 50.4468 52.9772 51.6426 51.9619 52.6205C50.9755 53.6256 49.7822 54.4039 48.4648 54.9013C46.6514 55.5634 44.7389 55.9131 42.8086 55.9352C39.7676 56.0872 38.6424 56.1176 30.6447 56.1176C22.6469 56.1176 21.5217 56.1176 18.4808 55.9352C16.4764 55.9727 14.4807 55.6641 12.5813 55.0229C11.3216 54.5001 10.183 53.7238 9.2362 52.7422C8.22687 51.7652 7.45676 50.5685 6.98588 49.245C6.24345 47.4057 5.83166 45.4497 5.76949 43.4672C5.76949 40.4262 5.58704 39.3011 5.58704 31.3033C5.58704 23.3055 5.58703 22.1804 5.76949 19.1394C5.78312 17.166 6.14338 15.2103 6.83383 13.3615C7.36919 12.078 8.19092 10.9338 9.2362 10.0165C10.1601 8.97089 11.3019 8.14049 12.5813 7.5837C14.4349 6.91482 16.3886 6.56521 18.3591 6.54977C21.4001 6.54977 22.5253 6.36731 30.523 6.36731C38.5208 6.36731 39.6459 6.36731 42.6869 6.54977C44.6172 6.57191 46.5298 6.92151 48.3431 7.5837C49.725 8.09657 50.9653 8.93038 51.9619 10.0165C52.9584 10.9506 53.7371 12.0927 54.2426 13.3615C54.9185 15.2133 55.2683 17.1682 55.2766 19.1394C55.4286 22.1804 55.459 23.3055 55.459 31.3033C55.459 39.3011 55.4286 40.4262 55.2766 43.4672ZM30.523 15.7031C27.4389 15.7091 24.4258 16.6292 21.8643 18.347C19.3029 20.0648 17.3081 22.5033 16.132 25.3544C14.9559 28.2055 14.6513 31.3412 15.2567 34.3653C15.8621 37.3895 17.3502 40.1663 19.5332 42.345C21.7161 44.5237 24.4958 46.0065 27.5212 46.6059C30.5465 47.2054 33.6816 46.8947 36.5304 45.7131C39.3792 44.5314 41.8138 42.5319 43.5266 39.9671C45.2395 37.4024 46.1536 34.3874 46.1536 31.3033C46.1577 29.251 45.7559 27.2181 44.9714 25.3216C44.187 23.4251 43.0353 21.7024 41.5827 20.2526C40.13 18.8027 38.4051 17.6544 36.507 16.8737C34.609 16.0929 32.5754 15.6951 30.523 15.7031ZM30.523 41.4297C28.5202 41.4297 26.5624 40.8358 24.8971 39.7231C23.2318 38.6104 21.9339 37.0289 21.1674 35.1785C20.401 33.3282 20.2004 31.2921 20.5912 29.3277C20.9819 27.3634 21.9463 25.559 23.3625 24.1428C24.7788 22.7266 26.5831 21.7622 28.5475 21.3714C30.5118 20.9807 32.5479 21.1812 34.3982 21.9477C36.2486 22.7141 37.8302 24.0121 38.9429 25.6773C40.0556 27.3426 40.6495 29.3005 40.6495 31.3033C40.6495 32.6331 40.3875 33.9499 39.8786 35.1785C39.3697 36.4071 38.6238 37.5234 37.6835 38.4638C36.7432 39.4041 35.6268 40.15 34.3982 40.6589C33.1697 41.1678 31.8528 41.4297 30.523 41.4297Z" fill="white"/>
</svg>
