<svg width="61" height="61" viewBox="0 0 61 61" fill="none" xmlns="http://www.w3.org/2000/svg">
<path d="M30.523 0.134766C14.3227 0.134766 0.113281 12.5685 0.113281 26.7433C0.113281 38.3009 8.01576 47.6842 20.3864 51.016V59.0536C20.388 59.5573 20.6022 60.0398 20.982 60.3959C21.3619 60.752 21.8766 60.9528 22.4138 60.9543C22.7239 60.9543 23.0341 60.8877 23.32 60.7547L43.729 51.1813C55.6273 44.4874 60.9328 36.9515 60.9328 26.7433C60.9328 12.5685 46.7233 0.134766 30.523 0.134766ZM41.7807 47.8496L24.4411 55.9785V49.5506C24.441 49.1226 24.2868 48.7071 24.0035 48.3715C23.7202 48.0359 23.3243 47.7997 22.88 47.7013C11.5129 45.1792 4.16791 36.9534 4.16791 26.7433C4.16791 14.5927 16.4839 3.93598 30.523 3.93598C44.5622 3.93598 56.8781 14.5927 56.8781 26.7433C56.8781 35.5811 52.3207 41.914 41.7807 47.8496Z" fill="white"/>
<path d="M34.5773 26.1676L30.1821 19.9868C29.9407 19.6474 29.5892 19.3898 29.1796 19.2522C28.77 19.1145 28.324 19.104 27.9076 19.2223C27.4911 19.3405 27.1263 19.5813 26.8671 19.9089C26.6079 20.2366 26.4679 20.6337 26.468 21.0417V34.3459H30.5227V27.3194L34.9179 33.5002C35.1593 33.8396 35.5108 34.0971 35.9204 34.2348C36.33 34.3725 36.776 34.383 37.1924 34.2647C37.6089 34.1464 37.9737 33.9057 38.2329 33.578C38.4921 33.2504 38.632 32.8533 38.6319 32.4453V19.1411H34.5773V26.1676ZM50.7958 22.9423V19.1411H42.6866C42.1489 19.1411 41.6332 19.3413 41.253 19.6977C40.8728 20.0542 40.6593 20.5376 40.6593 21.0417V32.4453C40.6593 32.9494 40.8728 33.4328 41.253 33.7893C41.6332 34.1457 42.1489 34.3459 42.6866 34.3459H50.7958V30.5447H44.7139V28.6441H50.7958V24.8429H44.7139V22.9423H50.7958ZM14.3041 19.1411H10.2495V32.4453C10.2495 32.9494 10.4631 33.4328 10.8433 33.7893C11.2235 34.1457 11.7392 34.3459 12.2768 34.3459H18.3588V30.5447H14.3041V19.1411ZM20.3861 19.1411H24.4407V34.3459H20.3861V19.1411Z" fill="white"/>
</svg>
