<svg width="53" height="54" viewBox="0 0 53 54" fill="none" xmlns="http://www.w3.org/2000/svg">
<path d="M38.5979 32.0548C38.0715 31.7916 34.6496 30.2122 34.1231 29.949C33.5967 29.6858 33.0702 29.6858 32.5438 30.2122C32.0174 30.7387 30.9645 32.318 30.438 32.8445C30.1748 33.3709 29.6484 33.3709 29.1219 33.1077C27.2794 32.318 25.4368 31.2651 23.8575 29.949C22.5414 28.6329 21.2253 27.0536 20.1724 25.4743C19.9091 24.9478 20.1724 24.4214 20.4356 24.1581C20.6988 23.8949 20.962 23.3685 21.4885 23.1053C21.7517 22.842 22.0149 22.3156 22.0149 22.0524C22.2781 21.7891 22.2781 21.2627 22.0149 20.9995C21.7517 20.7363 20.4356 17.5776 19.9091 16.2615C19.6459 14.4189 19.1195 14.4189 18.593 14.4189H17.2769C16.7505 14.4189 15.9608 14.9454 15.6976 15.2086C14.1183 16.7879 13.3286 18.6305 13.3286 20.7363C13.5918 23.1053 14.3815 25.4743 15.9608 27.58C18.8563 31.7916 22.5414 35.2135 27.0161 37.3192C28.3322 37.8457 29.3851 38.3721 30.7012 38.6354C32.0174 39.1618 33.3335 39.1618 34.9128 38.8986C36.7554 38.6354 38.3347 37.3192 39.3876 35.7399C39.914 34.687 39.914 33.6341 39.6508 32.5812L38.5979 32.0548ZM45.1785 8.10159C34.9128 -2.16407 18.3298 -2.16407 8.06414 8.10159C-0.358964 16.5247 -1.9383 29.4226 3.85259 39.6882L0.16748 53.1126L14.1183 49.4275C18.0666 51.5332 22.2781 52.5861 26.4897 52.5861C40.9669 52.5861 52.5487 41.0044 52.5487 26.5271C52.8119 19.6834 49.9165 13.1028 45.1785 8.10159ZM38.0715 44.9527C34.6496 47.0585 30.7012 48.3746 26.4897 48.3746C22.5414 48.3746 18.8563 47.3217 15.4344 45.4791L14.6447 44.9527L6.48481 47.0585L8.59059 39.1618L8.06414 38.3721C1.74681 27.8432 4.90548 14.6821 15.1711 8.10159C25.4368 1.52104 38.5979 4.94293 44.9152 14.9454C51.2326 25.211 48.3371 38.6354 38.0715 44.9527Z" fill="white"/>
</svg>
