<svg width="617" height="946" viewBox="0 0 617 946" fill="none" xmlns="http://www.w3.org/2000/svg">
<path d="M340 0.199951H342.2V62.4L409.5 101.3L476.8 62.4V0.199951H479V62.4L546.3 101.3L613.6 62.4V0.199951H615.8V62.4L683.1 101.3L750.4 62.4V0.199951H752.6V62.4L776.3 76.0999V78.8999L751.5 64.5999L684.2 103.5V181L741.5 214.1C741 214.7 740.6 215.4 740.1 216L683.1 183.1L615.8 222V299.5L672.9 332.5C672.6 333.2 672.2 334 671.9 334.7L614.7 301.7L547.4 340.6V418.1L614.7 457L635.6 445C635.4 446 635.2 447.1 634.9 448.1L615.8 459.1V536.6L621.6 540C621.5 540.9 621.5 541.8 621.4 542.7L614.7 538.8L547.4 577.7V655.2L614.7 694.1L629.1 685.8C629.2 686.6 629.4 687.4 629.5 688.3L615.8 696.2V773.7L659.9 799.2C660.4 800.4 660.8 801.6 661.2 802.8L614.7 775.9L547.4 814.8V892.3L614.7 931.2L648.8 911.5C647.9 912.9 647 914.3 646.1 915.8L615.7 933.3V942.9C615 942.6 614.2 942.3 613.5 942.1V933.4L546.2 894.5L509.4 915.7C508.2 915.5 506.9 915.3 505.7 915.1L545.1 892.4V814.9L477.8 776L410.5 814.9V892.4L438.4 908.5C436.7 908.4 435.1 908.4 433.4 908.3L409.5 894.5L384.7 908.8C383 908.9 381.4 908.9 379.7 909L408.4 892.4V814.9L341.1 776L273.8 814.9V892.4L314.9 916.1C313.7 916.3 312.5 916.5 311.3 916.8L272.7 894.5L205.4 933.4V944.7C204.7 945 203.9 945.3 203.2 945.5V933.4L135.9 894.5L117.9 904.9C117.4 904.3 116.9 903.7 116.5 903L134.8 892.4V814.9L67.5 776L50 786.1C49.7 785.4 49.4 784.6 49 783.9L66.4 773.9V696.4L12 665C11.8 664 11.5 662.9 11.3 661.9L67.5 694.3L134.8 655.4V577.9L67.5 539L0.799988 577.5C0.799988 576.6 0.599976 575.7 0.599976 574.8L66.4 536.8V459.3L10.8 427.2C11 426.4 11.1 425.6 11.3 424.8L67.6 457.3L134.9 418.4V340.9L67.6 302L43.4 316C43.9 314.8 44.3 313.6 44.8 312.4L66.6 299.8V264.8C67.3 263.3 68 261.9 68.8 260.4V299.8L136.1 338.7L203.4 299.8V222.3L136.1 183.4L102.4 202.9C102.9 202.2 103.3 201.4 103.8 200.6C104.3 199.9 104.8 199.2 105.3 198.5L135 181.4V158.1C135.7 157.2 136.4 156.2 137.2 155.3V181.4L204.5 220.3L271.8 181.4V103.9L217.4 72.5C218.1 71.9 218.7 71.4 219.3 70.8L272.8 101.7L340 62.4V0.199951ZM477.9 64.5999L410.6 103.5V181L477.9 219.9L545.2 181V103.5L477.9 64.5999ZM341 538.4L273.7 577.3V654.8L341 693.6L408.3 654.7V577.2L341 538.4ZM409.5 575.1L476.8 536.2V458.7L409.5 419.8L342.2 458.7V536.2L409.5 575.1ZM340 536.2V458.7L272.7 419.8L205.4 458.7V536.2L272.7 575.1L340 536.2ZM341 456.7L408.3 417.8V340.3L341 301.4L273.7 340.3V417.8L341 456.7ZM409.5 338.2L476.8 299.3V221.8L409.5 182.9L342.2 221.8V299.3L409.5 338.2ZM682 180.9V103.4L614.7 64.5L547.4 103.4V180.9L614.7 219.8L682 180.9ZM613.6 299.3V221.8L546.3 182.9L479 221.8V299.3L546.3 338.2L613.6 299.3ZM545.2 340.3L477.9 301.4L410.6 340.3V417.8L477.9 456.7L545.2 417.8V340.3ZM613.6 536.2V458.7L546.3 419.8L479 458.7V536.2L546.3 575.1L613.6 536.2ZM545.2 577.2L477.9 538.3L410.6 577.2V654.7L477.9 693.6L545.2 654.7V577.2ZM546.3 812L613.6 773.1V695.6L546.3 656.7L479 695.6V773.1L546.3 812ZM409.5 812L476.8 773.1V695.6L409.5 656.7L342.2 695.6V773.1L409.5 812ZM340 773.1V695.6L272.7 656.7L205.4 695.6V773.1L272.6 812L340 773.1ZM136.9 891.6L204.2 930.5L271.5 891.6V814.1L204.2 775.2L136.9 814.1V891.6ZM68.5 695.6V773.1L135.8 812L203.1 773.1V695.6L135.8 656.7L68.5 695.6ZM136.9 654.7L204.2 693.6L271.5 654.7V577.2L204.2 538.3L136.9 577.2V654.7ZM68.5 458.7V536.2L135.8 575.1L203.1 536.2V458.7L135.8 419.8L68.5 458.7ZM136.9 340.3V417.8L204.2 456.7L271.5 417.8V340.3L204.2 301.4L136.9 340.3ZM205.3 221.8V299.3L272.6 338.2L340 299.3V221.8L272.7 182.9L205.3 221.8ZM273.7 103.4V180.9L341 219.8L408.3 180.9V103.4L341 64.5999L273.7 103.4Z" fill="url(#paint0_radial_1306_1434)"/>
<defs>
<radialGradient id="paint0_radial_1306_1434" cx="0" cy="0" r="1" gradientUnits="userSpaceOnUse" gradientTransform="translate(608.938 536.428) rotate(-146.364) scale(607.053 614.184)">
<stop stop-color="white"/>
<stop offset="0.0899998" stop-color="#F8F8F8" stop-opacity="0.91"/>
<stop offset="0.2167" stop-color="#E6E6E6" stop-opacity="0.7833"/>
<stop offset="0.365" stop-color="#C8C8C8" stop-opacity="0.635"/>
<stop offset="0.5299" stop-color="#9E9E9E" stop-opacity="0.4701"/>
<stop offset="0.7084" stop-color="#686868" stop-opacity="0.2916"/>
<stop offset="0.8954" stop-color="#272727" stop-opacity="0.1046"/>
<stop offset="1" stop-opacity="0"/>
</radialGradient>
</defs>
</svg>
