<svg width="1094" height="1196" viewBox="0 0 1094 1196" fill="none" xmlns="http://www.w3.org/2000/svg">
<g opacity="0.2">
<path d="M688.43 820.348L660.85 871.841L484.114 871.841C483.837 870.164 482.486 868.864 480.774 868.859C478.868 868.859 477.323 870.449 477.323 872.411C477.323 874.372 478.868 875.963 480.774 875.963C482.48 875.963 483.837 874.657 484.114 872.981L661.514 872.992L689.094 821.5L830.789 821.5C831.065 823.176 832.423 824.482 834.129 824.482C836.034 824.482 837.58 822.891 837.58 820.93C837.58 818.968 836.034 817.377 834.129 817.377C832.423 817.377 831.065 818.683 830.789 820.359L688.43 820.359L688.43 820.348Z" fill="#A1FFFF"/>
<path d="M606.543 790.042L707.036 790.042C707.313 791.719 708.665 793.019 710.376 793.024C712.282 793.024 713.827 791.434 713.827 789.472C713.827 787.511 712.282 785.92 710.376 785.92C708.67 785.92 707.313 787.226 707.036 788.902L608.465 788.908L629.337 751.31L467.724 751.31L467.458 751.31L438.011 788.908L378.254 788.908C377.977 787.232 376.619 785.926 374.913 785.926C373.008 785.926 371.462 787.517 371.462 789.478C371.462 791.439 373.008 793.03 374.913 793.03C376.619 793.03 377.977 791.725 378.254 790.048L438.277 790.048L438.543 790.048L467.99 752.451L627.409 752.451L606.537 790.048L606.543 790.042Z" fill="#A1FFFF"/>
<path d="M313.045 720.214H313.333L364.771 645.783L528.489 645.783L528.788 645.783L570.538 581.713L311.921 581.713C311.644 580.036 310.292 578.736 308.581 578.731C306.675 578.731 305.13 580.321 305.13 582.283C305.13 584.244 306.675 585.835 308.58 585.835C310.287 585.835 311.644 584.529 311.921 582.853L568.444 582.853L528.195 644.626L364.488 644.626L364.2 644.626L312.763 719.056L50.9995 719.068C50.7225 717.392 49.3654 716.086 47.6593 716.086C45.7538 716.086 44.2083 717.677 44.2084 719.638C44.2084 721.599 45.7538 723.19 47.6593 723.19C49.3654 723.19 50.7225 721.885 50.9995 720.208L313.051 720.208L313.045 720.214Z" fill="#A1FFFF"/>
<path d="M286.208 690.285L286.485 690.285L325.342 636.957L76.0647 636.957C75.7878 635.281 74.4362 633.981 72.7246 633.975C70.8191 633.975 69.2736 635.566 69.2736 637.527C69.2736 639.488 70.8191 641.079 72.7246 641.079C74.4307 641.079 75.7878 639.774 76.0647 638.097L323.105 638.097L285.925 689.128L69.6724 689.128C69.689 688.997 69.75 688.877 69.7445 688.746C69.7445 686.785 68.199 685.194 66.2935 685.194C64.388 685.194 62.8425 686.785 62.8425 688.746C62.8425 690.707 64.388 692.298 66.2935 692.298C67.6562 692.298 68.8194 691.466 69.3733 690.28L286.202 690.28L286.208 690.285Z" fill="#A1FFFF"/>
<path d="M679.268 713.759L453.936 713.753H453.682L414.176 759.721H371.435L342.847 728.789L383.001 671.64C383.416 671.817 383.865 671.914 384.336 671.919C386.241 671.919 387.787 670.329 387.787 668.367C387.787 666.406 386.241 664.815 384.336 664.815C382.43 664.815 380.885 666.406 380.885 668.367C380.885 669.428 381.356 670.346 382.07 671.002L341.667 728.509L341.39 728.897L370.781 760.702L370.953 760.878H414.425L414.68 760.878L454.186 714.911L677.374 714.911L652.774 760.884L793.604 760.884C793.881 762.56 795.232 763.86 796.944 763.866C798.849 763.866 800.395 762.275 800.395 760.314C800.395 758.352 798.849 756.762 796.944 756.762C795.238 756.762 793.881 758.067 793.604 759.744L654.657 759.744L679.257 713.77L679.268 713.759Z" fill="#A1FFFF"/>
<path d="M421.886 679.931H421.598L392.096 721.861C391.631 721.622 391.127 721.457 390.573 721.457C388.667 721.457 387.122 723.047 387.122 725.009C387.122 726.97 388.667 728.561 390.573 728.561C392.478 728.561 394.024 726.97 394.024 725.009C394.024 724.028 393.636 723.15 393.021 722.506L422.169 681.077L569.773 681.071L636.194 585.949C636.737 586.325 637.363 586.593 638.067 586.599C639.972 586.599 641.518 585.008 641.518 583.046C641.518 581.085 639.972 579.494 638.067 579.494C636.161 579.494 634.616 581.085 634.616 583.046C634.616 583.856 634.926 584.563 635.364 585.162L569.197 679.919L421.886 679.919V679.931Z" fill="#A1FFFF"/>
<path d="M810.016 603.191L776.471 643.092L678.005 643.092C677.883 641.245 676.426 639.768 674.598 639.768C672.693 639.768 671.147 641.359 671.147 643.32C671.147 645.282 672.693 646.872 674.598 646.872C676.182 646.872 677.467 645.743 677.872 644.244L776.986 644.238L810.531 604.337L968.699 604.337C968.976 606.014 970.334 607.319 972.04 607.319C973.945 607.319 975.491 605.728 975.491 603.767C975.491 601.806 973.945 600.215 972.04 600.215C970.334 600.215 968.976 601.521 968.699 603.197L810.022 603.197L810.016 603.191Z" fill="#A1FFFF"/>
<path d="M65.7396 499.601L65.7396 604.342L285.105 604.342C285.382 606.018 286.739 607.324 288.445 607.324C290.351 607.324 291.896 605.733 291.896 603.772C291.896 601.81 290.351 600.22 288.446 600.22C286.739 600.22 285.382 601.525 285.105 603.202L66.8586 603.202L66.8586 500.764H311.184L311.494 500.764L359.946 422.496L529.625 422.496C529.902 424.172 531.253 425.472 532.965 425.478C534.87 425.478 536.416 423.887 536.416 421.926C536.416 419.964 534.87 418.374 532.965 418.374C531.259 418.374 529.902 419.679 529.625 421.356L359.647 421.356L359.337 421.356L310.885 499.624L65.7507 499.624L65.7396 499.601Z" fill="#A1FFFF"/>
<path d="M333.242 534.199L97.0476 534.199L97.0476 573.473C95.419 573.758 94.1505 575.155 94.1505 576.911C94.1505 578.872 95.696 580.463 97.6015 580.463C99.507 580.463 101.052 578.872 101.052 576.911C101.052 575.155 99.784 573.758 98.1554 573.473L98.1554 535.351L333.84 535.351L384.153 454.711L526.412 454.711L479.821 542.957H652.214V541.805H481.694L528.284 453.559L383.532 453.559L333.219 534.199L333.242 534.199Z" fill="#A1FFFF"/>
<path d="M448.292 535.352L481.771 478.881L409.284 478.881C409.007 477.205 407.656 475.905 405.944 475.899C404.039 475.899 402.493 477.49 402.493 479.452C402.493 481.413 404.039 483.004 405.944 483.004C407.65 483.004 409.007 481.698 409.284 480.022H479.777L447.66 534.188L381.71 534.188C381.433 532.512 380.081 531.212 378.37 531.206C376.664 531.206 375.306 532.512 375.029 534.188L374.919 534.188L374.919 535.34L375.029 535.34C375.306 537.017 376.658 538.317 378.37 538.322C380.081 538.328 381.433 537.017 381.71 535.34L447.97 535.34L448.281 535.34L448.292 535.352Z" fill="#A1FFFF"/>
<path d="M684.447 561.756L708.299 512.265L546.365 512.265C546.088 510.589 544.736 509.289 543.024 509.283C541.119 509.283 539.573 510.874 539.573 512.835C539.573 514.797 541.119 516.387 543.024 516.387C544.731 516.387 546.088 515.082 546.365 513.405L706.499 513.411L682.647 562.902L968.7 562.908C968.977 564.584 970.334 565.89 972.04 565.89C973.945 565.89 975.491 564.299 975.491 562.338C975.491 560.376 973.945 558.786 972.04 558.786C970.334 558.786 968.977 560.091 968.7 561.768L684.447 561.768L684.447 561.756Z" fill="#A1FFFF"/>
<path d="M738.095 534.199L777.977 445.891L615.322 445.891C615.045 444.214 613.694 442.914 611.982 442.909C610.077 442.909 608.531 444.499 608.531 446.461C608.531 448.422 610.077 450.013 611.982 450.013C613.688 450.013 615.045 448.707 615.322 447.031L776.227 447.031L736.344 535.34L968.705 535.34C968.982 537.016 970.333 538.316 972.045 538.322C973.951 538.322 975.496 536.731 975.496 534.77C975.496 532.808 973.951 531.217 972.045 531.217C970.339 531.217 968.982 532.523 968.705 534.199L738.1 534.194L738.095 534.199Z" fill="#A1FFFF"/>
<path d="M965.248 501.517C965.525 503.193 966.877 504.493 968.589 504.499C970.494 504.499 972.04 502.908 972.04 500.947C972.04 498.985 970.494 497.395 968.589 497.395C966.883 497.395 965.525 498.7 965.248 500.377L802.112 500.382L823.72 435.548L965.298 435.542C965.669 437.098 966.971 438.279 968.589 438.279C970.217 438.279 971.519 437.098 971.879 435.542L972.045 435.542V434.39L971.979 434.39C971.807 432.594 970.383 431.174 968.594 431.169C966.799 431.169 965.376 432.588 965.21 434.39L823.327 434.39L822.928 434.39L800.555 501.528L965.26 501.528L965.248 501.517Z" fill="#A1FFFF"/>
<path d="M849.417 467.38C849.185 465.647 847.8 464.301 846.055 464.296C844.149 464.296 842.604 465.887 842.604 467.848C842.604 469.809 844.149 471.4 846.055 471.4C847.728 471.4 849.057 470.146 849.373 468.521L965.243 468.521C965.52 470.197 966.872 471.497 968.583 471.503C970.289 471.503 971.646 470.197 971.923 468.521L972.034 468.521V467.951L972.04 467.375L971.929 467.375C971.652 465.698 970.295 464.393 968.589 464.393C966.883 464.393 965.526 465.698 965.249 467.375L849.417 467.38V467.38Z" fill="#A1FFFF"/>
<path d="M624.656 824.482C626.562 824.482 628.107 822.891 628.107 820.93C628.107 818.968 626.562 817.377 624.656 817.377C622.95 817.377 621.593 818.683 621.316 820.359L367.718 820.359L305.268 751.482L305.097 751.305L51.1105 751.294C51.1105 749.333 49.5651 747.742 47.6595 747.742C45.754 747.742 44.2086 749.333 44.2086 751.294C44.2086 753.255 45.754 754.846 47.6595 754.846C49.1662 754.846 50.4181 753.831 50.8889 752.446L304.609 752.446L367.059 821.323L367.23 821.5L621.311 821.505C621.588 823.182 622.945 824.487 624.651 824.487L624.656 824.482Z" fill="#A1FFFF"/>
<path d="M841.313 633.695C841.313 631.733 839.768 630.143 837.862 630.143C835.957 630.143 834.411 631.733 834.411 633.695C834.411 634.596 834.76 635.388 835.298 636.021L776.471 710.018C775.989 709.75 775.463 709.562 774.875 709.562C772.97 709.562 771.425 711.153 771.425 713.114C771.425 715.076 772.97 716.667 774.875 716.667C776.781 716.667 778.326 715.076 778.326 713.114C778.326 712.168 777.955 711.33 777.374 710.686L836.178 636.722C836.683 637.025 837.242 637.247 837.868 637.241C839.773 637.241 841.319 635.65 841.319 633.689L841.313 633.695Z" fill="#A1FFFF"/>
<path d="M968.628 658.441L868.423 658.441L868.146 658.441L811.49 734.411L706.156 734.411L738.211 679.931L616.071 679.931L670.411 604.348L757.649 604.342C757.925 606.019 759.283 607.324 760.989 607.324C762.894 607.324 764.44 605.734 764.44 603.772C764.44 601.811 762.894 600.22 760.989 600.22C759.283 600.22 757.925 601.526 757.649 603.202L670.128 603.202L669.846 603.196L613.855 681.082L736.228 681.082L704.172 735.563L811.767 735.563L812.044 735.563L868.7 659.592L968.849 659.592C969.364 660.887 970.594 661.799 972.04 661.805C973.945 661.805 975.491 660.214 975.491 658.253C975.491 656.291 973.945 654.7 972.04 654.7C970.134 654.7 968.589 656.291 968.589 658.253C968.589 658.321 968.622 658.378 968.628 658.441V658.441Z" fill="#A1FFFF"/>
<path d="M684.475 346.429C686.181 346.429 687.538 345.124 687.815 343.447L800.938 343.447L822.502 401.383L641.401 401.383C641.124 399.706 639.773 398.407 638.061 398.401C636.156 398.401 634.61 399.992 634.61 401.953C634.61 403.914 636.156 405.505 638.061 405.505C639.767 405.505 641.124 404.199 641.401 402.523L824.119 402.523L801.702 342.284L687.804 342.284C687.527 340.608 686.17 339.302 684.464 339.302C682.558 339.302 681.013 340.893 681.013 342.854C681.013 344.816 682.558 346.406 684.464 346.406L684.475 346.429Z" fill="#A1FFFF"/>
<path d="M783.439 375.588C785.345 375.588 786.89 373.997 786.89 372.036C786.89 370.075 785.345 368.484 783.439 368.484C781.733 368.484 780.376 369.789 780.099 371.466L659.232 371.466C658.817 369.978 657.543 368.871 655.97 368.871C654.064 368.871 652.519 370.462 652.519 372.424C652.519 374.385 654.064 375.976 655.97 375.976C657.809 375.976 659.282 374.482 659.382 372.612L780.105 372.612C780.381 374.288 781.733 375.588 783.445 375.594L783.439 375.588Z" fill="#A1FFFF"/>
<path d="M722.313 477.644C724.219 477.644 725.764 476.053 725.764 474.092C725.764 472.131 724.219 470.54 722.313 470.54C720.408 470.54 718.863 472.131 718.863 474.092C718.863 476.053 720.408 477.644 722.313 477.644Z" fill="#A1FFFF"/>
<path d="M380.885 607.119C378.979 607.119 377.434 608.71 377.434 610.671C377.434 612.633 378.979 614.223 380.885 614.223C382.591 614.223 383.948 612.918 384.225 611.241L505.767 611.241C506.044 612.918 507.396 614.218 509.107 614.223C511.013 614.223 512.558 612.633 512.558 610.671C512.558 608.71 511.013 607.119 509.107 607.119C507.401 607.119 506.044 608.425 505.767 610.101L384.225 610.101C383.948 608.425 382.596 607.125 380.885 607.119Z" fill="#A1FFFF"/>
<path d="M266.078 565.12C267.983 565.12 269.529 563.53 269.529 561.568C269.529 559.607 267.983 558.016 266.078 558.016C264.372 558.016 263.015 559.322 262.738 560.998L139.711 560.998C139.434 559.322 138.082 558.022 136.37 558.016C134.465 558.016 132.92 559.607 132.92 561.568C132.92 563.53 134.465 565.12 136.37 565.12C138.077 565.12 139.434 563.815 139.711 562.138L262.738 562.138C263.015 563.815 264.366 565.115 266.078 565.12Z" fill="#A1FFFF"/>
<path d="M90.1513 666.03C91.8574 666.03 93.2145 664.724 93.4915 663.048L262.738 663.048C263.015 664.724 264.372 666.03 266.078 666.03C267.984 666.03 269.529 664.439 269.529 662.478C269.529 660.516 267.984 658.926 266.078 658.926C264.372 658.926 263.015 660.231 262.738 661.908L93.4915 661.908C93.2145 660.231 91.863 658.931 90.1513 658.926C88.2458 658.926 86.7004 660.516 86.7004 662.478C86.7004 664.439 88.2458 666.03 90.1513 666.03Z" fill="#A1FFFF"/>
<path d="M568.366 782.277C570.272 782.277 571.817 780.687 571.817 778.725C571.817 776.764 570.272 775.173 568.366 775.173C566.66 775.173 565.303 776.479 565.026 778.155L490.822 778.155C490.545 776.479 489.194 775.179 487.482 775.173C485.577 775.173 484.031 776.764 484.031 778.725C484.031 780.687 485.577 782.277 487.482 782.277C489.188 782.277 490.545 780.972 490.822 779.295L565.026 779.295C565.303 780.972 566.655 782.272 568.366 782.277Z" fill="#A1FFFF"/>
</g>
</svg>
