<svg width="1440" height="539" viewBox="0 0 1440 539" fill="none" xmlns="http://www.w3.org/2000/svg">
<path d="M291.309 106.944C182.379 56.6125 198.801 3.68069 7.36557 44.3728L-52.4381 113.062L49.8104 301.301L1255.57 392.408L1666.61 277.551C1549.25 208.379 1488.1 145.84 1348.88 145.737C1248.57 145.664 1166.63 197.325 1066.32 197.595C924.571 197.977 846.46 135.949 705.445 120.686C534.75 102.211 400.239 157.276 291.309 106.944Z" fill="url(#paint0_linear_1507_1366)"/>
<path d="M249.205 121.216C131.83 51.8637 151.112 -24.5053 -58.5505 38.8926L-125.516 139.005L-19.0373 406.381L1292.42 505.474L1743.31 329.918C1617.25 233.758 1552.25 145.639 1400.56 149.142C1291.26 151.667 1200.62 227.931 1091.31 230.949C936.845 235.213 853.358 148.273 700.103 130.073C514.591 108.043 366.58 190.568 249.205 121.216Z" fill="white"/>
<path fill-rule="evenodd" clip-rule="evenodd" d="M-58.2344 39.3196L-124.954 139.065L-18.6882 405.906L1292.34 504.967L1742.3 329.775C1716.44 310.026 1693.16 290.621 1671.16 272.294C1666.58 268.479 1662.06 264.711 1657.59 260.997C1631.4 239.268 1606.73 219.363 1581.27 202.574C1530.37 169.008 1476.3 147.894 1400.57 149.643C1346.03 150.902 1296.12 170.562 1246.12 190.326L1245.63 190.521C1195.82 210.21 1145.9 229.942 1091.33 231.449C1013.99 233.584 954.421 212.883 895.069 189.4C888.773 186.909 882.48 184.387 876.168 181.857C822.974 160.538 768.473 138.696 700.044 130.57C621.158 121.202 549.065 130.755 483.166 139.487C471.644 141.014 460.311 142.516 449.164 143.887C374.303 153.095 307.798 156.418 248.951 121.647C219.565 104.284 198.734 86.482 180.753 70.5541C179.146 69.1304 177.561 67.7219 175.996 66.3303C160.04 52.1446 146.058 39.7132 129.694 30.7113C93.8407 10.9879 46.4497 7.68433 -58.2344 39.3196ZM181.416 69.8056C199.383 85.7211 220.157 103.472 249.459 120.786C307.986 155.367 374.175 152.103 449.042 142.894C460.174 141.525 471.497 140.024 483.014 138.498C548.911 129.765 621.14 120.193 700.162 129.577C768.73 137.72 823.351 159.611 876.539 180.928C882.852 183.458 889.144 185.98 895.437 188.47C954.76 211.941 1014.17 232.578 1091.3 230.449C1145.7 228.947 1195.48 209.271 1245.34 189.561L1245.76 189.396C1295.73 169.642 1345.8 149.907 1400.55 148.643C1476.51 146.888 1530.79 168.082 1581.82 201.739C1607.33 218.562 1632.03 238.498 1658.22 260.227C1662.7 263.944 1667.23 267.714 1671.81 271.53C1694 290.023 1717.49 309.599 1743.61 329.521L1744.32 330.061L1292.49 505.981L-19.3862 406.856L-126.078 138.946L-58.8665 38.466L-58.6952 38.4142C46.1636 6.70692 93.9307 9.89609 130.176 29.8351C146.644 38.8942 160.711 51.402 176.648 65.5713C178.218 66.9672 179.806 68.3792 181.416 69.8056Z" fill="white"/>
<defs>
<linearGradient id="paint0_linear_1507_1366" x1="815.642" y1="82.0433" x2="794.821" y2="357.594" gradientUnits="userSpaceOnUse">
<stop stop-color="#023147"/>
<stop offset="0.541667" stop-color="white"/>
</linearGradient>
</defs>
</svg>
