<svg width="1440" height="575" viewBox="0 0 1440 575" fill="none" xmlns="http://www.w3.org/2000/svg">
<path d="M1256.28 461.36C1380.71 515.012 1361.95 571.436 1580.64 528.06L1648.95 454.838L1532.15 254.18L154.784 157.062L-314.751 279.497C-180.698 353.233 -110.84 419.898 48.1897 420.007C162.776 420.086 256.384 365.016 370.963 364.728C532.892 364.321 622.12 430.441 783.204 446.711C978.193 466.406 1131.85 407.707 1256.28 461.36Z" fill="url(#paint0_linear_1507_1374)"/>
<path d="M1304.38 446.147C1438.46 520.075 1416.43 601.482 1655.93 533.902L1732.43 427.184L1610.8 142.168L112.693 36.537L-402.37 223.676C-258.372 326.18 -184.125 420.112 -10.8438 416.378C114.012 413.687 217.557 332.391 342.416 329.175C518.87 324.629 614.239 417.305 789.305 436.705C1001.22 460.19 1170.3 372.219 1304.38 446.147Z" fill="white"/>
<path fill-rule="evenodd" clip-rule="evenodd" d="M1655.57 533.447L1731.79 427.12L1610.4 142.674L112.78 37.0773L-401.214 223.828C-371.684 244.88 -345.082 265.565 -319.958 285.101C-314.728 289.168 -309.562 293.184 -304.448 297.144C-274.53 320.306 -246.356 341.524 -217.274 359.421C-159.131 395.202 -97.3616 417.709 -10.8567 415.845C51.453 414.502 108.459 393.546 165.575 372.477L166.14 372.269C223.037 351.282 280.06 330.247 342.4 328.642C430.748 326.366 498.793 348.433 566.592 373.464C573.784 376.12 580.973 378.808 588.183 381.505C648.948 404.23 711.205 427.513 789.373 436.176C879.487 446.162 961.84 435.979 1037.12 426.671C1050.28 425.043 1063.23 423.442 1075.96 421.981C1161.47 412.165 1237.44 408.623 1304.67 445.688C1338.24 464.196 1362.03 483.173 1382.57 500.151C1384.41 501.669 1386.22 503.17 1388 504.654C1406.23 519.775 1422.2 533.027 1440.9 542.623C1481.85 563.648 1535.99 567.169 1655.57 533.447ZM1381.81 500.949C1361.29 483.984 1337.56 465.061 1304.09 446.606C1237.23 409.743 1161.62 413.222 1076.1 423.039C1063.38 424.498 1050.45 426.098 1037.29 427.725C962.016 437.034 879.507 447.238 789.239 437.235C710.912 428.554 648.516 405.218 587.759 382.495C580.548 379.798 573.36 377.11 566.171 374.456C498.406 349.436 430.539 327.438 342.432 329.707C280.294 331.308 223.43 352.283 166.474 373.292L165.995 373.469C108.91 394.526 51.716 415.563 -10.8302 416.911C-97.6068 418.781 -159.601 396.189 -217.902 360.311C-247.042 342.379 -275.259 321.128 -305.177 297.965C-310.295 294.002 -315.463 289.984 -320.694 285.916C-346.048 266.202 -372.884 245.335 -402.716 224.099L-403.525 223.523L112.608 35.9962L1611.19 141.661L1733.07 427.247L1656.29 534.357L1656.1 534.412C1536.32 568.211 1481.75 564.811 1440.35 543.557C1421.53 533.9 1405.47 520.567 1387.26 505.463C1385.47 503.975 1383.65 502.47 1381.81 500.949Z" fill="white"/>
<defs>
<linearGradient id="paint0_linear_1507_1374" x1="657.324" y1="487.904" x2="678.05" y2="193.958" gradientUnits="userSpaceOnUse">
<stop stop-color="#023147"/>
<stop offset="0.541667" stop-color="white"/>
</linearGradient>
</defs>
</svg>
